<?xml version="1.0" encoding="utf-8"?>
<!-- Generator: Adobe Illustrator 19.1.0, SVG Export Plug-In . SVG Version: 6.00 Build 0)  -->
<svg version="1.1" id="Layer_1" xmlns="http://www.w3.org/2000/svg" xmlns:xlink="http://www.w3.org/1999/xlink" x="0px" y="0px"
	 viewBox="0 0 64 64" style="enable-background:new 0 0 64 64;" xml:space="preserve">
<style type="text/css">
	.st0{fill:#3B383F;stroke:#000000;stroke-miterlimit:10;}
	.st1{fill:#FFFFFF;}
</style>
<g>
	<path class="st0" d="M58,64H6c-3.3,0-6-2.7-6-6V6c0-3.3,2.7-6,6-6h52c3.3,0,6,2.7,6,6v52C64,61.3,61.3,64,58,64z"/>
	<g>
		<g>
			<path class="st1" d="M33,29.7l0.1,0.3C33.1,29.9,33.1,29.8,33,29.7z"/>
			<path class="st1" d="M52.1,19.4c-1.6,4.8-3.4,10.1-5.1,15.2l-3.4-11.1h-2.4l-3.5,11.2l-1.2-3.8c-0.5,0.9-1.3,1.7-2.2,2.4
				c-0.1,0.1-0.1,0.1-0.2,0.1l2.4,7.3h2.3c1.1-3.2,2.4-8.1,3.6-11.5l3.6,11.5h2.3l7-21.2H52.1z"/>
		</g>
		<g>
			<path class="st1" d="M26.5,37.7c3-2.5,3.8-3.1,6.8-5.5c5.7-4,3.5-12.7-4.5-12.7c-4.4,0-6.8,3.1-7.3,6.8l3,0.2
				c0.4-2.3,1.7-4,4.3-4c4.9,0,5.7,5,2.4,7.4h0l-6.7,5.7c0.1,0.6,0.2,1.2,0.2,1.8c0,1.2-0.2,2.3-0.8,3.4h11l-0.9-2.9H26.5z"/>
			<path class="st1" d="M21.4,38.2v0.9c0.2-0.4,0.3-0.8,0.4-1.2L21.4,38.2z"/>
		</g>
		<path class="st1" d="M11.5,38.6c0.8,1.7,2.3,2.9,4.4,2.9c3.1,0,4.7-2.1,4.6-4.3c0-1.5-0.8-3-2.4-3.7c-2.5-1-4.9-0.8-7.4,0.7
			l-1.7-0.8v-10H19v3h-7v4.2c2.3-0.8,4.8-0.8,7.1,0.1c2.9,1.2,4.4,3.8,4.4,6.5c0,3.7-2.6,7.3-7.7,7.3c-3.5,0-6-1.7-7.2-4.8
			L11.5,38.6z"/>
	</g>
</g>
</svg>
